<?xml version="1.0" encoding="UTF-8"?>
<svg xmlns="http://www.w3.org/2000/svg" width="100" height="100" viewBox="0 0 100 100" fill="none">
  <g clip-path="url(#clip0_1_4194)">
    <path d="M100 0H0V100H100V0Z" fill="#0A0A0A"></path>
    <path d="M15.7529 59.7921C16.7322 60.1424 17.7592 60.3362 18.7972 60.3664C24.6276 60.3664 26.5475 52.2283 26.5475 51.5272C26.5475 50.7544 25.7146 48.9299 25.2981 47.7263L13.3333 14.3333H20.4589L29.9541 43.9381H30.0915L39.7616 14.3333H46.3333L33.3274 50.8853C30.9078 57.7565 28.3299 65.6666 19.7676 65.6666C18.2791 65.661 16.7953 65.4968 15.3406 65.1767L15.7529 59.7921Z" fill="white"></path>
    <path d="M86.6666 14.1704V46.6594C86.6666 56.4444 82.758 65.6657 67.674 65.6657C63.4092 65.6974 59.182 64.866 55.2462 63.2216L56.0153 55.2539C58.8774 56.7936 63.5552 58.4006 66.4888 58.4006C76.8194 58.4006 77.3111 50.6433 77.3111 44.4256H77.1724C75.424 47.5008 71.2338 50.1553 65.997 50.1553C55.3849 50.1553 51.3333 41.6323 51.3333 31.9862C51.3333 23.3244 55.8051 13.3333 66.556 13.3333C71.3052 13.3333 75.0079 14.9402 77.5885 19.0629H77.7272V14.1704H86.6666ZM77.3111 31.7632C77.3111 25.6129 74.9365 20.5815 69.4896 20.5815C63.1349 20.5815 61.1091 26.4711 61.1091 31.9693C61.1091 36.8618 63.6939 42.8733 69.0693 42.8733C74.9365 42.8902 77.3111 37.7873 77.3111 31.7632Z" fill="white"></path>
    <path d="M16.5583 81.5382L17.8663 77.458H19.7774L17.4482 83.2477V86.5418H15.6685V83.2477L13.3333 77.458H15.2444L16.5583 81.5382Z" fill="white"></path>
    <path d="M26.5201 82.8172C26.5201 84.0359 26.2433 84.9821 25.6899 85.6559C25.1405 86.3297 24.376 86.6666 23.3966 86.6666C22.4211 86.6666 21.6547 86.3338 21.0972 85.6684C20.5398 84.9987 20.2571 84.0629 20.2492 82.8609V81.3074C20.2492 80.0596 20.5259 79.0864 21.0793 78.3876C21.6328 77.6847 22.4012 77.3333 23.3846 77.3333C24.3521 77.3333 25.1146 77.6785 25.672 78.3689C26.2294 79.0552 26.5121 80.0201 26.5201 81.2637V82.8172ZM24.7582 81.2949C24.7582 80.4756 24.6468 79.8662 24.4238 79.4669C24.2008 79.0677 23.8544 78.868 23.3846 78.868C22.9188 78.868 22.5744 79.0614 22.3514 79.4482C22.1285 79.8309 22.013 80.4152 22.005 81.2013V82.8172C22.005 83.6116 22.1185 84.1981 22.3454 84.5766C22.5724 84.9509 22.9228 85.1381 23.3966 85.1381C23.8544 85.1381 24.1949 84.9551 24.4178 84.589C24.6408 84.2189 24.7543 83.647 24.7582 82.8734V81.2949Z" fill="white"></path>
    <path d="M33.4359 77.458V83.7468C33.428 84.6909 33.1791 85.4147 32.6894 85.9179C32.1997 86.417 31.4969 86.6666 30.5812 86.6666C29.6495 86.6666 28.9368 86.4129 28.4431 85.9054C27.9534 85.398 27.7085 84.6639 27.7085 83.7031V77.458H29.4763V83.7094C29.4763 84.2251 29.556 84.5932 29.7152 84.8136C29.8745 85.0341 30.1631 85.1443 30.5812 85.1443C30.9992 85.1443 31.2859 85.0362 31.4412 84.8199C31.5965 84.5994 31.6761 84.2397 31.6801 83.7406V77.458H33.4359Z" fill="white"></path>
    <path d="M37.4015 83.2227H36.5296V86.5418H34.7737V77.458H37.5747C38.4546 77.458 39.1335 77.6972 39.6112 78.1755C40.093 78.6497 40.3339 79.3255 40.3339 80.2031C40.3339 81.4093 39.9138 82.2536 39.0737 82.7361L40.5967 86.4545V86.5418H38.7094L37.4015 83.2227ZM36.5296 81.6942H37.5269C37.8773 81.6942 38.1401 81.5736 38.3153 81.3324C38.4904 81.087 38.578 80.7605 38.578 80.3529C38.578 79.442 38.2376 78.9865 37.5568 78.9865H36.5296V81.6942Z" fill="white"></path>
    <path d="M50.2717 85.5124C49.9333 85.895 49.5172 86.1841 49.0235 86.3796C48.5338 86.5709 47.9963 86.6666 47.411 86.6666C46.4116 86.6666 45.6353 86.3442 45.0818 85.6996C44.5284 85.0507 44.2437 84.1087 44.2278 82.8734V81.2388C44.2278 79.9868 44.4886 79.024 45.0102 78.3502C45.5357 77.6722 46.3002 77.3333 47.3035 77.3333C48.2471 77.3333 48.9578 77.5766 49.4356 78.0632C49.9174 78.5498 50.1961 79.313 50.2717 80.3529H48.5637C48.5159 79.7747 48.4004 79.3817 48.2173 79.1737C48.0341 78.9616 47.7474 78.8555 47.3573 78.8555C46.8835 78.8555 46.5391 79.0365 46.3241 79.3983C46.1091 79.7602 45.9976 80.3362 45.9896 81.1265V82.7735C45.9896 83.6012 46.1071 84.2043 46.342 84.5828C46.5809 84.9571 46.9711 85.1443 47.5125 85.1443C47.8589 85.1443 48.1396 85.0715 48.3546 84.9259L48.5099 84.8136V83.1479H47.2796V81.7628H50.2717V85.5124Z" fill="white"></path>
    <path d="M56.0051 82.6113H53.2698V85.0195H56.5068V86.5418H51.5139V77.458H56.4948V78.9865H53.2698V81.1327H56.0051V82.6113Z" fill="white"></path>
    <path d="M63.6018 86.5418H61.846L59.2779 80.5837V86.5418H57.522V77.458H59.2779L61.8519 83.4224V77.458H63.6018V86.5418Z" fill="white"></path>
    <path d="M71.1328 82.8172C71.1328 84.0359 70.8561 84.9821 70.3027 85.6559C69.7532 86.3297 68.9888 86.6666 68.0093 86.6666C67.0339 86.6666 66.2674 86.3338 65.71 85.6684C65.1526 84.9987 64.8699 84.0629 64.8619 82.8609V81.3074C64.8619 80.0596 65.1387 79.0864 65.6921 78.3876C66.2455 77.6847 67.0139 77.3333 67.9974 77.3333C68.9649 77.3333 69.7273 77.6785 70.2847 78.3689C70.8422 79.0552 71.1248 80.0201 71.1328 81.2637V82.8172ZM69.371 81.2949C69.371 80.4756 69.2595 79.8662 69.0365 79.4669C68.8136 79.0677 68.4672 78.868 67.9974 78.868C67.5315 78.868 67.1871 79.0614 66.9642 79.4482C66.7412 79.8309 66.6257 80.4152 66.6178 81.2013V82.8172C66.6178 83.6116 66.7313 84.1981 66.9582 84.5766C67.1851 84.9509 67.5355 85.1381 68.0093 85.1381C68.4672 85.1381 68.8076 84.9551 69.0306 84.589C69.2535 84.2189 69.367 83.647 69.371 82.8734V81.2949Z" fill="white"></path>
    <path d="M74.6863 77.458L76.3287 84.0275L77.9651 77.458H80.2584V86.5418H78.4966V84.0837L78.6579 80.2967L76.9199 86.5418H75.7255L73.9875 80.2967L74.1488 84.0837V86.5418H72.393V77.458H74.6863Z" fill="white"></path>
    <path d="M86.165 82.6113H83.4297V85.0195H86.6666V86.5418H81.6738V77.458H86.6547V78.9865H83.4297V81.1327H86.165V82.6113Z" fill="white"></path>
  </g>
  <defs>
    <clipPath id="clip0_1_4194">
      <rect width="100" height="100" fill="white"></rect>
    </clipPath>
  </defs>
</svg>
